<svg width="28" height="28" viewBox="0 0 28 28" fill="none" xmlns="http://www.w3.org/2000/svg">
<path d="M14 2.33331C7.56004 2.33331 2.33337 7.55998 2.33337 14C2.33337 20.44 7.56004 25.6666 14 25.6666C20.44 25.6666 25.6667 20.44 25.6667 14C25.6667 7.55998 20.44 2.33331 14 2.33331ZM8.24837 21.3266C8.75004 20.2766 11.8067 19.25 14 19.25C16.1934 19.25 19.2617 20.2766 19.7517 21.3266C18.165 22.5866 16.17 23.3333 14 23.3333C11.83 23.3333 9.83504 22.5866 8.24837 21.3266ZM21.42 19.635C19.7517 17.605 15.7034 16.9166 14 16.9166C12.2967 16.9166 8.24837 17.605 6.58004 19.635C5.39004 18.0716 4.66671 16.1233 4.66671 14C4.66671 8.85498 8.85504 4.66665 14 4.66665C19.145 4.66665 23.3334 8.85498 23.3334 14C23.3334 16.1233 22.61 18.0716 21.42 19.635ZM14 6.99998C11.7367 6.99998 9.91671 8.81998 9.91671 11.0833C9.91671 13.3466 11.7367 15.1666 14 15.1666C16.2634 15.1666 18.0834 13.3466 18.0834 11.0833C18.0834 8.81998 16.2634 6.99998 14 6.99998ZM14 12.8333C13.0317 12.8333 12.25 12.0516 12.25 11.0833C12.25 10.115 13.0317 9.33331 14 9.33331C14.9684 9.33331 15.75 10.115 15.75 11.0833C15.75 12.0516 14.9684 12.8333 14 12.8333Z" fill="white"/>
</svg>
