<svg width="29" height="29" viewBox="0 0 29 29" fill="none" xmlns="http://www.w3.org/2000/svg">
<path d="M21.7499 3.625V6.04167H19.3333V3.625H9.66659V6.04167H7.24992V3.625H4.83325V25.375H7.24992V22.9583H9.66659V25.375H19.3333V22.9583H21.7499V25.375H24.1666V3.625H21.7499ZM9.66659 20.5417H7.24992V18.125H9.66659V20.5417ZM9.66659 15.7083H7.24992V13.2917H9.66659V15.7083ZM9.66659 10.875H7.24992V8.45833H9.66659V10.875ZM21.7499 20.5417H19.3333V18.125H21.7499V20.5417ZM21.7499 15.7083H19.3333V13.2917H21.7499V15.7083ZM21.7499 10.875H19.3333V8.45833H21.7499V10.875Z" fill="white"/>
</svg>
